<svg width="428" height="129" viewBox="0 0 428 129" fill="none" xmlns="http://www.w3.org/2000/svg">
<rect x="84" y="90" width="10" height="9" fill="#7E15FC"/>
<rect x="84" y="90" width="10" height="9" fill="#7E15FC"/>
<rect x="48" y="91" width="10" height="9" fill="#7E15FC"/>
<rect x="48" y="91" width="10" height="9" fill="#7E15FC"/>
<rect x="38" y="59" width="10" height="9" fill="#7E15FC"/>
<rect x="38" y="59" width="10" height="9" fill="#7E15FC"/>
<rect x="94" y="57" width="10" height="9" fill="#7E15FC"/>
<rect x="94" y="57" width="10" height="9" fill="#7E15FC"/>
<rect x="65" y="36" width="10" height="9" fill="#7E15FC"/>
<rect x="65" y="36" width="10" height="9" fill="#7E15FC"/>
<mask id="path-6-outside-1_1_3" maskUnits="userSpaceOnUse" x="133" y="53" width="253" height="37" fill="black">
<rect fill="white" x="133" y="53" width="253" height="37"/>
<path d="M135.984 80.8C136.976 81.312 138.24 81.824 139.776 82.336C141.312 82.848 142.768 83.104 144.144 83.104C146.096 83.104 147.552 82.8 148.512 82.192C149.504 81.584 150 80.704 150 79.552C150 78.464 149.344 77.504 148.032 76.672C146.752 75.808 145.328 74.976 143.76 74.176C141.456 72.992 139.248 71.616 137.136 70.048C135.056 68.448 134.016 66.208 134.016 63.328C134.016 60.864 134.992 58.8 136.944 57.136C138.896 55.44 141.664 54.592 145.248 54.592C146.88 54.592 148.512 54.848 150.144 55.36C151.776 55.872 153.216 56.432 154.464 57.04L152.4 62.032C151.408 61.552 150.336 61.104 149.184 60.688C148.032 60.24 146.752 60.016 145.344 60.016C143.968 60.016 142.8 60.288 141.84 60.832C140.912 61.376 140.448 62.208 140.448 63.328C140.448 64.512 141.008 65.504 142.128 66.304C143.28 67.072 144.656 67.856 146.256 68.656L146.592 68.848C148.896 70.032 151.104 71.44 153.216 73.072C155.36 74.672 156.432 76.864 156.432 79.648C156.432 82.24 155.376 84.384 153.264 86.08C151.184 87.776 148.176 88.624 144.24 88.624C142.864 88.624 141.088 88.32 138.912 87.712C136.768 87.104 135.328 86.48 134.592 85.84L135.984 80.8ZM175.86 87.52C175.348 87.936 174.612 88.272 173.652 88.528C172.724 88.816 171.892 88.96 171.156 88.96C168.276 88.96 166.004 88.24 164.34 86.8C162.708 85.328 161.892 83.248 161.892 80.56V69.568H158.772V64.768H161.892V59.248L168.084 58.144V64.768H172.308L174.228 69.568H168.084V79.456C168.084 80.672 168.372 81.68 168.948 82.48C169.524 83.248 170.372 83.632 171.492 83.632C171.908 83.632 172.324 83.584 172.74 83.488C173.156 83.392 173.588 83.232 174.036 83.008L175.86 87.52ZM192.088 64.72L193.336 69.712C192.28 69.712 191.048 70.016 189.64 70.624C188.264 71.232 186.904 72.128 185.56 73.312V88H179.32V64.72H182.584L184.648 68.128C185.608 67.296 186.776 66.528 188.152 65.824C189.528 65.088 190.84 64.72 192.088 64.72ZM208.571 88.576C204.539 88.576 201.355 87.472 199.019 85.264C196.715 83.056 195.563 80.096 195.563 76.384C195.563 72.672 196.603 69.696 198.683 67.456C200.795 65.216 203.659 64.096 207.275 64.096C210.923 64.096 213.595 65.312 215.291 67.744C217.019 70.144 217.883 72.992 217.883 76.288V78.208H202.187C202.475 79.744 203.179 80.976 204.299 81.904C205.419 82.8 206.891 83.248 208.715 83.248C209.771 83.248 210.715 83.12 211.547 82.864C212.411 82.576 213.403 82.176 214.523 81.664L216.347 86.176C215.259 87.008 213.931 87.616 212.363 88C210.827 88.384 209.563 88.576 208.571 88.576ZM211.979 74.032C211.659 72.464 211.083 71.312 210.251 70.576C209.419 69.808 208.379 69.424 207.131 69.424C205.851 69.424 204.779 69.824 203.915 70.624C203.051 71.392 202.491 72.528 202.235 74.032H211.979ZM227.335 81.04C227.335 81.712 227.607 82.32 228.151 82.864C228.695 83.376 229.415 83.632 230.311 83.632C231.175 83.632 232.039 83.44 232.903 83.056C233.799 82.672 234.647 82.096 235.447 81.328V77.776H230.743C229.655 77.776 228.807 78.112 228.199 78.784C227.623 79.456 227.335 80.208 227.335 81.04ZM230.407 88.576C227.559 88.576 225.447 87.888 224.071 86.512C222.695 85.104 222.007 83.28 222.007 81.04C222.007 78.64 222.823 76.8 224.455 75.52C226.087 74.24 228.215 73.6 230.839 73.6H235.399C235.367 72.416 235.015 71.504 234.343 70.864C233.703 70.192 232.807 69.856 231.655 69.856C230.567 69.856 229.383 70.016 228.103 70.336C226.823 70.624 225.751 70.976 224.887 71.392L223.207 66.208C224.103 65.6 225.463 65.104 227.287 64.72C229.143 64.304 230.567 64.096 231.559 64.096C234.343 64.096 236.727 64.912 238.711 66.544C240.695 68.144 241.687 70.192 241.687 72.688V88H238.471L236.935 86.032C236.071 86.704 235.047 87.296 233.863 87.808C232.711 88.32 231.559 88.576 230.407 88.576ZM267.445 67.456C268.437 66.336 269.749 65.456 271.381 64.816C273.045 64.144 274.533 63.808 275.845 63.808C279.013 63.808 281.253 64.736 282.565 66.592C283.909 68.448 284.581 70.72 284.581 73.408V88H278.293V73.696C278.293 72.224 277.941 71.104 277.237 70.336C276.533 69.536 275.509 69.136 274.165 69.136C273.269 69.136 272.325 69.376 271.333 69.856C270.341 70.336 269.445 70.88 268.645 71.488C268.677 71.808 268.709 72.128 268.741 72.448C268.773 72.768 268.789 73.088 268.789 73.408V88H262.501V73.696C262.501 72.224 262.149 71.104 261.445 70.336C260.741 69.536 259.733 69.136 258.421 69.136C257.621 69.136 256.805 69.312 255.973 69.664C255.173 69.984 254.405 70.4 253.669 70.912V88H247.429V64.72H250.693L252.229 66.832C253.285 65.872 254.549 65.136 256.021 64.624C257.525 64.08 258.869 63.808 260.053 63.808C261.877 63.808 263.397 64.144 264.613 64.816C265.829 65.456 266.773 66.336 267.445 67.456ZM302.625 80.8C303.617 81.312 304.881 81.824 306.417 82.336C307.953 82.848 309.409 83.104 310.785 83.104C312.737 83.104 314.193 82.8 315.153 82.192C316.145 81.584 316.641 80.704 316.641 79.552C316.641 78.464 315.985 77.504 314.673 76.672C313.393 75.808 311.969 74.976 310.401 74.176C308.097 72.992 305.889 71.616 303.777 70.048C301.697 68.448 300.657 66.208 300.657 63.328C300.657 60.864 301.633 58.8 303.585 57.136C305.537 55.44 308.305 54.592 311.889 54.592C313.521 54.592 315.153 54.848 316.785 55.36C318.417 55.872 319.857 56.432 321.105 57.04L319.041 62.032C318.049 61.552 316.977 61.104 315.825 60.688C314.673 60.24 313.393 60.016 311.985 60.016C310.609 60.016 309.441 60.288 308.481 60.832C307.553 61.376 307.089 62.208 307.089 63.328C307.089 64.512 307.649 65.504 308.769 66.304C309.921 67.072 311.297 67.856 312.897 68.656L313.233 68.848C315.537 70.032 317.745 71.44 319.857 73.072C322.001 74.672 323.073 76.864 323.073 79.648C323.073 82.24 322.017 84.384 319.905 86.08C317.825 87.776 314.817 88.624 310.881 88.624C309.505 88.624 307.729 88.32 305.553 87.712C303.409 87.104 301.969 86.48 301.233 85.84L302.625 80.8ZM342.501 87.52C341.989 87.936 341.253 88.272 340.293 88.528C339.365 88.816 338.533 88.96 337.797 88.96C334.917 88.96 332.645 88.24 330.981 86.8C329.349 85.328 328.533 83.248 328.533 80.56V69.568H325.413V64.768H328.533V59.248L334.725 58.144V64.768H338.949L340.869 69.568H334.725V79.456C334.725 80.672 335.013 81.68 335.589 82.48C336.165 83.248 337.013 83.632 338.133 83.632C338.549 83.632 338.965 83.584 339.381 83.488C339.797 83.392 340.229 83.232 340.677 83.008L342.501 87.52ZM350.616 81.04C350.616 81.712 350.888 82.32 351.432 82.864C351.976 83.376 352.696 83.632 353.592 83.632C354.456 83.632 355.32 83.44 356.184 83.056C357.08 82.672 357.928 82.096 358.728 81.328V77.776H354.024C352.936 77.776 352.088 78.112 351.48 78.784C350.904 79.456 350.616 80.208 350.616 81.04ZM353.688 88.576C350.84 88.576 348.728 87.888 347.352 86.512C345.976 85.104 345.288 83.28 345.288 81.04C345.288 78.64 346.104 76.8 347.736 75.52C349.368 74.24 351.496 73.6 354.12 73.6H358.68C358.648 72.416 358.296 71.504 357.624 70.864C356.984 70.192 356.088 69.856 354.936 69.856C353.848 69.856 352.664 70.016 351.384 70.336C350.104 70.624 349.032 70.976 348.168 71.392L346.488 66.208C347.384 65.6 348.744 65.104 350.568 64.72C352.424 64.304 353.848 64.096 354.84 64.096C357.624 64.096 360.008 64.912 361.992 66.544C363.976 68.144 364.968 70.192 364.968 72.688V88H361.752L360.216 86.032C359.352 86.704 358.328 87.296 357.144 87.808C355.992 88.32 354.84 88.576 353.688 88.576ZM383.478 64.72L384.726 69.712C383.67 69.712 382.438 70.016 381.03 70.624C379.654 71.232 378.294 72.128 376.95 73.312V88H370.71V64.72H373.974L376.038 68.128C376.998 67.296 378.166 66.528 379.542 65.824C380.918 65.088 382.23 64.72 383.478 64.72Z"/>
</mask>
<path d="M135.984 80.8C136.976 81.312 138.24 81.824 139.776 82.336C141.312 82.848 142.768 83.104 144.144 83.104C146.096 83.104 147.552 82.8 148.512 82.192C149.504 81.584 150 80.704 150 79.552C150 78.464 149.344 77.504 148.032 76.672C146.752 75.808 145.328 74.976 143.76 74.176C141.456 72.992 139.248 71.616 137.136 70.048C135.056 68.448 134.016 66.208 134.016 63.328C134.016 60.864 134.992 58.8 136.944 57.136C138.896 55.44 141.664 54.592 145.248 54.592C146.88 54.592 148.512 54.848 150.144 55.36C151.776 55.872 153.216 56.432 154.464 57.04L152.4 62.032C151.408 61.552 150.336 61.104 149.184 60.688C148.032 60.24 146.752 60.016 145.344 60.016C143.968 60.016 142.8 60.288 141.84 60.832C140.912 61.376 140.448 62.208 140.448 63.328C140.448 64.512 141.008 65.504 142.128 66.304C143.28 67.072 144.656 67.856 146.256 68.656L146.592 68.848C148.896 70.032 151.104 71.44 153.216 73.072C155.36 74.672 156.432 76.864 156.432 79.648C156.432 82.24 155.376 84.384 153.264 86.08C151.184 87.776 148.176 88.624 144.24 88.624C142.864 88.624 141.088 88.32 138.912 87.712C136.768 87.104 135.328 86.48 134.592 85.84L135.984 80.8ZM175.86 87.52C175.348 87.936 174.612 88.272 173.652 88.528C172.724 88.816 171.892 88.96 171.156 88.96C168.276 88.96 166.004 88.24 164.34 86.8C162.708 85.328 161.892 83.248 161.892 80.56V69.568H158.772V64.768H161.892V59.248L168.084 58.144V64.768H172.308L174.228 69.568H168.084V79.456C168.084 80.672 168.372 81.68 168.948 82.48C169.524 83.248 170.372 83.632 171.492 83.632C171.908 83.632 172.324 83.584 172.74 83.488C173.156 83.392 173.588 83.232 174.036 83.008L175.86 87.52ZM192.088 64.72L193.336 69.712C192.28 69.712 191.048 70.016 189.64 70.624C188.264 71.232 186.904 72.128 185.56 73.312V88H179.32V64.72H182.584L184.648 68.128C185.608 67.296 186.776 66.528 188.152 65.824C189.528 65.088 190.84 64.72 192.088 64.72ZM208.571 88.576C204.539 88.576 201.355 87.472 199.019 85.264C196.715 83.056 195.563 80.096 195.563 76.384C195.563 72.672 196.603 69.696 198.683 67.456C200.795 65.216 203.659 64.096 207.275 64.096C210.923 64.096 213.595 65.312 215.291 67.744C217.019 70.144 217.883 72.992 217.883 76.288V78.208H202.187C202.475 79.744 203.179 80.976 204.299 81.904C205.419 82.8 206.891 83.248 208.715 83.248C209.771 83.248 210.715 83.12 211.547 82.864C212.411 82.576 213.403 82.176 214.523 81.664L216.347 86.176C215.259 87.008 213.931 87.616 212.363 88C210.827 88.384 209.563 88.576 208.571 88.576ZM211.979 74.032C211.659 72.464 211.083 71.312 210.251 70.576C209.419 69.808 208.379 69.424 207.131 69.424C205.851 69.424 204.779 69.824 203.915 70.624C203.051 71.392 202.491 72.528 202.235 74.032H211.979ZM227.335 81.04C227.335 81.712 227.607 82.32 228.151 82.864C228.695 83.376 229.415 83.632 230.311 83.632C231.175 83.632 232.039 83.44 232.903 83.056C233.799 82.672 234.647 82.096 235.447 81.328V77.776H230.743C229.655 77.776 228.807 78.112 228.199 78.784C227.623 79.456 227.335 80.208 227.335 81.04ZM230.407 88.576C227.559 88.576 225.447 87.888 224.071 86.512C222.695 85.104 222.007 83.28 222.007 81.04C222.007 78.64 222.823 76.8 224.455 75.52C226.087 74.24 228.215 73.6 230.839 73.6H235.399C235.367 72.416 235.015 71.504 234.343 70.864C233.703 70.192 232.807 69.856 231.655 69.856C230.567 69.856 229.383 70.016 228.103 70.336C226.823 70.624 225.751 70.976 224.887 71.392L223.207 66.208C224.103 65.6 225.463 65.104 227.287 64.72C229.143 64.304 230.567 64.096 231.559 64.096C234.343 64.096 236.727 64.912 238.711 66.544C240.695 68.144 241.687 70.192 241.687 72.688V88H238.471L236.935 86.032C236.071 86.704 235.047 87.296 233.863 87.808C232.711 88.32 231.559 88.576 230.407 88.576ZM267.445 67.456C268.437 66.336 269.749 65.456 271.381 64.816C273.045 64.144 274.533 63.808 275.845 63.808C279.013 63.808 281.253 64.736 282.565 66.592C283.909 68.448 284.581 70.72 284.581 73.408V88H278.293V73.696C278.293 72.224 277.941 71.104 277.237 70.336C276.533 69.536 275.509 69.136 274.165 69.136C273.269 69.136 272.325 69.376 271.333 69.856C270.341 70.336 269.445 70.88 268.645 71.488C268.677 71.808 268.709 72.128 268.741 72.448C268.773 72.768 268.789 73.088 268.789 73.408V88H262.501V73.696C262.501 72.224 262.149 71.104 261.445 70.336C260.741 69.536 259.733 69.136 258.421 69.136C257.621 69.136 256.805 69.312 255.973 69.664C255.173 69.984 254.405 70.4 253.669 70.912V88H247.429V64.72H250.693L252.229 66.832C253.285 65.872 254.549 65.136 256.021 64.624C257.525 64.08 258.869 63.808 260.053 63.808C261.877 63.808 263.397 64.144 264.613 64.816C265.829 65.456 266.773 66.336 267.445 67.456ZM302.625 80.8C303.617 81.312 304.881 81.824 306.417 82.336C307.953 82.848 309.409 83.104 310.785 83.104C312.737 83.104 314.193 82.8 315.153 82.192C316.145 81.584 316.641 80.704 316.641 79.552C316.641 78.464 315.985 77.504 314.673 76.672C313.393 75.808 311.969 74.976 310.401 74.176C308.097 72.992 305.889 71.616 303.777 70.048C301.697 68.448 300.657 66.208 300.657 63.328C300.657 60.864 301.633 58.8 303.585 57.136C305.537 55.44 308.305 54.592 311.889 54.592C313.521 54.592 315.153 54.848 316.785 55.36C318.417 55.872 319.857 56.432 321.105 57.04L319.041 62.032C318.049 61.552 316.977 61.104 315.825 60.688C314.673 60.24 313.393 60.016 311.985 60.016C310.609 60.016 309.441 60.288 308.481 60.832C307.553 61.376 307.089 62.208 307.089 63.328C307.089 64.512 307.649 65.504 308.769 66.304C309.921 67.072 311.297 67.856 312.897 68.656L313.233 68.848C315.537 70.032 317.745 71.44 319.857 73.072C322.001 74.672 323.073 76.864 323.073 79.648C323.073 82.24 322.017 84.384 319.905 86.08C317.825 87.776 314.817 88.624 310.881 88.624C309.505 88.624 307.729 88.32 305.553 87.712C303.409 87.104 301.969 86.48 301.233 85.84L302.625 80.8ZM342.501 87.52C341.989 87.936 341.253 88.272 340.293 88.528C339.365 88.816 338.533 88.96 337.797 88.96C334.917 88.96 332.645 88.24 330.981 86.8C329.349 85.328 328.533 83.248 328.533 80.56V69.568H325.413V64.768H328.533V59.248L334.725 58.144V64.768H338.949L340.869 69.568H334.725V79.456C334.725 80.672 335.013 81.68 335.589 82.48C336.165 83.248 337.013 83.632 338.133 83.632C338.549 83.632 338.965 83.584 339.381 83.488C339.797 83.392 340.229 83.232 340.677 83.008L342.501 87.52ZM350.616 81.04C350.616 81.712 350.888 82.32 351.432 82.864C351.976 83.376 352.696 83.632 353.592 83.632C354.456 83.632 355.32 83.44 356.184 83.056C357.08 82.672 357.928 82.096 358.728 81.328V77.776H354.024C352.936 77.776 352.088 78.112 351.48 78.784C350.904 79.456 350.616 80.208 350.616 81.04ZM353.688 88.576C350.84 88.576 348.728 87.888 347.352 86.512C345.976 85.104 345.288 83.28 345.288 81.04C345.288 78.64 346.104 76.8 347.736 75.52C349.368 74.24 351.496 73.6 354.12 73.6H358.68C358.648 72.416 358.296 71.504 357.624 70.864C356.984 70.192 356.088 69.856 354.936 69.856C353.848 69.856 352.664 70.016 351.384 70.336C350.104 70.624 349.032 70.976 348.168 71.392L346.488 66.208C347.384 65.6 348.744 65.104 350.568 64.72C352.424 64.304 353.848 64.096 354.84 64.096C357.624 64.096 360.008 64.912 361.992 66.544C363.976 68.144 364.968 70.192 364.968 72.688V88H361.752L360.216 86.032C359.352 86.704 358.328 87.296 357.144 87.808C355.992 88.32 354.84 88.576 353.688 88.576ZM383.478 64.72L384.726 69.712C383.67 69.712 382.438 70.016 381.03 70.624C379.654 71.232 378.294 72.128 376.95 73.312V88H370.71V64.72H373.974L376.038 68.128C376.998 67.296 378.166 66.528 379.542 65.824C380.918 65.088 382.23 64.72 383.478 64.72Z" fill="black"/>
<path d="M135.984 80.8L136.328 80.1335L135.507 79.7098L135.261 80.6003L135.984 80.8ZM139.776 82.336L140.013 81.6245L140.013 81.6245L139.776 82.336ZM148.512 82.192L148.12 81.5525L148.111 81.5584L148.512 82.192ZM148.032 76.672L147.612 77.2936L147.621 77.2996L147.63 77.3054L148.032 76.672ZM143.76 74.176L143.417 74.8431L143.419 74.8441L143.76 74.176ZM137.136 70.048L136.679 70.6426L136.689 70.6502L137.136 70.048ZM136.944 57.136L137.431 57.7068L137.436 57.7022L136.944 57.136ZM150.144 55.36L149.919 56.0756L149.919 56.0756L150.144 55.36ZM154.464 57.04L155.157 57.3266L155.427 56.6747L154.792 56.3658L154.464 57.04ZM152.4 62.032L152.073 62.7071L152.789 63.0535L153.093 62.3186L152.4 62.032ZM149.184 60.688L148.912 61.387L148.921 61.3903L148.929 61.3934L149.184 60.688ZM141.84 60.832L141.47 60.1794L141.461 60.185L141.84 60.832ZM142.128 66.304L141.692 66.9143L141.702 66.9213L141.712 66.928L142.128 66.304ZM146.256 68.656L146.628 68.0048L146.61 67.9945L146.591 67.9852L146.256 68.656ZM146.592 68.848L146.22 69.4992L146.234 69.5075L146.249 69.5151L146.592 68.848ZM153.216 73.072L152.757 73.6655L152.767 73.6731L153.216 73.072ZM153.264 86.08L152.794 85.4952L152.79 85.4987L153.264 86.08ZM138.912 87.712L138.707 88.4336L138.71 88.4343L138.912 87.712ZM134.592 85.84L133.869 85.6403L133.743 86.0959L134.1 86.406L134.592 85.84ZM135.64 81.4665C136.678 82.0022 137.981 82.5282 139.539 83.0475L140.013 81.6245C138.499 81.1198 137.274 80.6218 136.328 80.1335L135.64 81.4665ZM139.539 83.0475C141.138 83.5806 142.675 83.854 144.144 83.854V82.354C142.861 82.354 141.486 82.1154 140.013 81.6245L139.539 83.0475ZM144.144 83.854C146.148 83.854 147.775 83.5466 148.913 82.8256L148.111 81.5584C147.329 82.0534 146.044 82.354 144.144 82.354V83.854ZM148.904 82.8315C150.116 82.0888 150.75 80.9681 150.75 79.552H149.25C149.25 80.4399 148.892 81.0792 148.12 81.5525L148.904 82.8315ZM150.75 79.552C150.75 78.1067 149.861 76.944 148.434 76.0386L147.63 77.3054C148.827 78.064 149.25 78.8213 149.25 79.552H150.75ZM148.452 76.0504C147.143 75.1671 145.692 74.3199 144.101 73.5079L143.419 74.8441C144.964 75.6321 146.361 76.4489 147.612 77.2936L148.452 76.0504ZM144.103 73.5089C141.836 72.344 139.663 70.9898 137.583 69.4458L136.689 70.6502C138.833 72.2422 141.076 73.64 143.417 74.8431L144.103 73.5089ZM137.593 69.4535C135.718 68.0107 134.766 66.0012 134.766 63.328H133.266C133.266 66.4148 134.394 68.8853 136.679 70.6425L137.593 69.4535ZM134.766 63.328C134.766 61.0938 135.638 59.235 137.431 57.7068L136.457 56.5652C134.346 58.365 133.266 60.6342 133.266 63.328H134.766ZM137.436 57.7022C139.207 56.1636 141.775 55.342 145.248 55.342V53.842C141.553 53.842 138.585 54.7164 136.452 56.5698L137.436 57.7022ZM145.248 55.342C146.8 55.342 148.357 55.5853 149.919 56.0756L150.369 54.6444C148.667 54.1107 146.96 53.842 145.248 53.842V55.342ZM149.919 56.0756C151.524 56.5789 152.928 57.1258 154.136 57.7142L154.792 56.3658C153.504 55.7382 152.028 55.1651 150.369 54.6444L149.919 56.0756ZM153.771 56.7534L151.707 61.7454L153.093 62.3186L155.157 57.3266L153.771 56.7534ZM152.727 61.3569C151.709 60.8644 150.613 60.4065 149.439 59.9826L148.929 61.3934C150.059 61.8015 151.107 62.2396 152.073 62.7071L152.727 61.3569ZM149.456 59.989C148.206 59.5029 146.832 59.266 145.344 59.266V60.766C146.672 60.766 147.858 60.9771 148.912 61.387L149.456 59.989ZM145.344 59.266C143.87 59.266 142.568 59.5576 141.47 60.1795L142.21 61.4845C143.032 61.0184 144.066 60.766 145.344 60.766V59.266ZM141.461 60.185C140.292 60.8703 139.698 61.9553 139.698 63.328H141.198C141.198 62.4607 141.532 61.8817 142.219 61.479L141.461 60.185ZM139.698 63.328C139.698 64.796 140.412 65.9997 141.692 66.9143L142.564 65.6937C141.604 65.0083 141.198 64.228 141.198 63.328H139.698ZM141.712 66.928C142.896 67.7174 144.3 68.5167 145.921 69.3268L146.591 67.9852C145.012 67.1953 143.664 66.4266 142.544 65.68L141.712 66.928ZM145.884 69.3072L146.22 69.4992L146.964 68.1968L146.628 68.0048L145.884 69.3072ZM146.249 69.5151C148.511 70.6775 150.681 72.0606 152.757 73.6655L153.675 72.4785C151.527 70.8194 149.281 69.3865 146.935 68.1809L146.249 69.5151ZM152.767 73.6731C154.713 75.1249 155.682 77.0894 155.682 79.648H157.182C157.182 76.6386 156.007 74.2191 153.665 72.4709L152.767 73.6731ZM155.682 79.648C155.682 82.0011 154.738 83.9342 152.794 85.4952L153.734 86.6648C156.014 84.8338 157.182 82.4789 157.182 79.648H155.682ZM152.79 85.4987C150.894 87.0448 148.081 87.874 144.24 87.874V89.374C148.271 89.374 151.474 88.5072 153.738 86.6613L152.79 85.4987ZM144.24 87.874C142.962 87.874 141.26 87.5894 139.114 86.9897L138.71 88.4343C140.916 89.0506 142.766 89.374 144.24 89.374V87.874ZM139.117 86.9905C136.976 86.3835 135.683 85.7946 135.084 85.274L134.1 86.406C134.973 87.1654 136.56 87.8245 138.707 88.4335L139.117 86.9905ZM135.315 86.0397L136.707 80.9997L135.261 80.6003L133.869 85.6403L135.315 86.0397ZM175.86 87.52L176.333 88.1021L176.763 87.7527L176.556 87.2389L175.86 87.52ZM173.652 88.528L173.459 87.8033L173.445 87.8072L173.43 87.8117L173.652 88.528ZM164.34 86.8L163.838 87.3569L163.844 87.3621L163.85 87.3671L164.34 86.8ZM161.892 69.568H162.642V68.818H161.892V69.568ZM158.772 69.568H158.022V70.318H158.772V69.568ZM158.772 64.768V64.018H158.022V64.768H158.772ZM161.892 64.768V65.518H162.642V64.768H161.892ZM161.892 59.248L161.761 58.5096L161.142 58.6199V59.248H161.892ZM168.084 58.144H168.834V57.2484L167.953 57.4056L168.084 58.144ZM168.084 64.768H167.334V65.518H168.084V64.768ZM172.308 64.768L173.005 64.4895L172.816 64.018H172.308V64.768ZM174.228 69.568V70.318H175.336L174.925 69.2895L174.228 69.568ZM168.084 69.568V68.818H167.334V69.568H168.084ZM168.948 82.48L168.34 82.9182L168.344 82.9242L168.348 82.93L168.948 82.48ZM172.74 83.488L172.909 84.2188L172.909 84.2188L172.74 83.488ZM174.036 83.008L174.732 82.7269L174.427 81.974L173.701 82.3372L174.036 83.008ZM175.387 86.9379C174.988 87.2621 174.364 87.5621 173.459 87.8033L173.846 89.2527C174.861 88.9819 175.708 88.6099 176.333 88.1021L175.387 86.9379ZM173.43 87.8117C172.552 88.0841 171.797 88.21 171.156 88.21V89.71C171.987 89.71 172.896 89.5479 173.875 89.2443L173.43 87.8117ZM171.156 88.21C168.4 88.21 166.321 87.5225 164.831 86.2329L163.85 87.3671C165.687 88.9575 168.153 89.71 171.156 89.71V88.21ZM164.843 86.2431C163.403 84.9443 162.642 83.0869 162.642 80.56H161.142C161.142 83.4091 162.014 85.7117 163.838 87.3569L164.843 86.2431ZM162.642 80.56V69.568H161.142V80.56H162.642ZM161.892 68.818H158.772V70.318H161.892V68.818ZM159.522 69.568V64.768H158.022V69.568H159.522ZM158.772 65.518H161.892V64.018H158.772V65.518ZM162.642 64.768V59.248H161.142V64.768H162.642ZM162.024 59.9864L168.216 58.8824L167.953 57.4056L161.761 58.5096L162.024 59.9864ZM167.334 58.144V64.768H168.834V58.144H167.334ZM168.084 65.518H172.308V64.018H168.084V65.518ZM171.612 65.0465L173.532 69.8465L174.925 69.2895L173.005 64.4895L171.612 65.0465ZM174.228 68.818H168.084V70.318H174.228V68.818ZM167.334 69.568V79.456H168.834V69.568H167.334ZM167.334 79.456C167.334 80.792 167.652 81.9633 168.34 82.9182L169.557 82.0418C169.093 81.3967 168.834 80.552 168.834 79.456H167.334ZM168.348 82.93C169.091 83.9199 170.181 84.382 171.492 84.382V82.882C170.564 82.882 169.958 82.5761 169.548 82.03L168.348 82.93ZM171.492 84.382C171.967 84.382 172.439 84.3272 172.909 84.2188L172.572 82.7572C172.21 82.8408 171.85 82.882 171.492 82.882V84.382ZM172.909 84.2188C173.392 84.1074 173.88 83.9249 174.372 83.6788L173.701 82.3372C173.297 82.5391 172.921 82.6766 172.572 82.7572L172.909 84.2188ZM173.341 83.2891L175.165 87.8011L176.556 87.2389L174.732 82.7269L173.341 83.2891ZM192.088 64.72L192.815 64.5381L192.673 63.97H192.088V64.72ZM193.336 69.712V70.462H194.296L194.063 69.5301L193.336 69.712ZM189.64 70.624L189.342 69.9354L189.337 69.938L189.64 70.624ZM185.56 73.312L185.064 72.7492L184.81 72.9732V73.312H185.56ZM185.56 88V88.75H186.31V88H185.56ZM179.32 88H178.57V88.75H179.32V88ZM179.32 64.72V63.97H178.57V64.72H179.32ZM182.584 64.72L183.225 64.3315L183.006 63.97H182.584V64.72ZM184.648 68.128L184.006 68.5165L184.467 69.2772L185.139 68.6948L184.648 68.128ZM188.152 65.824L188.493 66.4918L188.505 66.4853L188.152 65.824ZM191.36 64.9019L192.608 69.8939L194.063 69.5301L192.815 64.5381L191.36 64.9019ZM193.336 68.962C192.142 68.962 190.805 69.3038 189.342 69.9355L189.937 71.3125C191.29 70.7282 192.417 70.462 193.336 70.462V68.962ZM189.337 69.938C187.879 70.5822 186.455 71.5239 185.064 72.7492L186.056 73.8748C187.353 72.7321 188.649 71.8818 189.943 71.31L189.337 69.938ZM184.81 73.312V88H186.31V73.312H184.81ZM185.56 87.25H179.32V88.75H185.56V87.25ZM180.07 88V64.72H178.57V88H180.07ZM179.32 65.47H182.584V63.97H179.32V65.47ZM181.942 65.1085L184.006 68.5165L185.289 67.7395L183.225 64.3315L181.942 65.1085ZM185.139 68.6948C186.045 67.9097 187.16 67.1739 188.493 66.4917L187.81 65.1563C186.392 65.8821 185.171 66.6823 184.157 67.5612L185.139 68.6948ZM188.505 66.4853C189.799 65.7932 190.99 65.47 192.088 65.47V63.97C190.689 63.97 189.256 64.3828 187.798 65.1627L188.505 66.4853ZM199.019 85.264L198.5 85.8055L198.504 85.8091L199.019 85.264ZM198.683 67.456L198.137 66.9415L198.133 66.9457L198.683 67.456ZM215.291 67.744L214.676 68.1731L214.682 68.1822L215.291 67.744ZM217.883 78.208V78.958H218.633V78.208H217.883ZM202.187 78.208V77.458H201.283L201.45 78.3462L202.187 78.208ZM204.299 81.904L203.82 82.4816L203.83 82.4897L204.299 81.904ZM211.547 82.864L211.767 83.5808L211.776 83.5783L211.784 83.5755L211.547 82.864ZM214.523 81.664L215.218 81.3829L214.924 80.6558L214.211 80.9819L214.523 81.664ZM216.347 86.176L216.802 86.7718L217.256 86.4247L217.042 85.8949L216.347 86.176ZM212.363 88L212.184 87.2715L212.181 87.2724L212.363 88ZM211.979 74.032V74.782H212.897L212.714 73.882L211.979 74.032ZM210.251 70.576L209.742 71.1271L209.748 71.1325L209.754 71.1377L210.251 70.576ZM203.915 70.624L204.413 71.1846L204.419 71.1795L204.424 71.1743L203.915 70.624ZM202.235 74.032L201.496 73.9062L201.346 74.782H202.235V74.032ZM208.571 87.826C204.679 87.826 201.698 86.7641 199.534 84.7189L198.504 85.8091C201.012 88.1799 204.398 89.326 208.571 89.326V87.826ZM199.538 84.7225C197.406 82.6793 196.313 79.9279 196.313 76.384H194.813C194.813 80.2641 196.024 83.4327 198.5 85.8055L199.538 84.7225ZM196.313 76.384C196.313 72.8185 197.308 70.0392 199.232 67.9663L198.133 66.9457C195.898 69.3528 194.813 72.5255 194.813 76.384H196.313ZM199.229 67.9705C201.174 65.9071 203.826 64.846 207.275 64.846V63.346C203.492 63.346 200.416 64.5249 198.137 66.9415L199.229 67.9705ZM207.275 64.846C210.742 64.846 213.153 65.9894 214.676 68.173L215.906 67.315C214.037 64.6346 211.104 63.346 207.275 63.346V64.846ZM214.682 68.1822C216.308 70.4401 217.133 73.1304 217.133 76.288H218.633C218.633 72.8536 217.73 69.8479 215.9 67.3058L214.682 68.1822ZM217.133 76.288V78.208H218.633V76.288H217.133ZM217.883 77.458H202.187V78.958H217.883V77.458ZM201.45 78.3462C201.767 80.0406 202.555 81.4331 203.82 82.4815L204.777 81.3265C203.803 80.5189 203.182 79.4474 202.924 78.0698L201.45 78.3462ZM203.83 82.4897C205.116 83.5181 206.768 83.998 208.715 83.998V82.498C207.014 82.498 205.722 82.0819 204.767 81.3183L203.83 82.4897ZM208.715 83.998C209.83 83.998 210.851 83.8629 211.767 83.5808L211.326 82.1472C210.579 82.3771 209.711 82.498 208.715 82.498V83.998ZM211.784 83.5755C212.68 83.2767 213.698 82.8656 214.835 82.3461L214.211 80.9819C213.108 81.4864 212.141 81.8753 211.31 82.1525L211.784 83.5755ZM213.828 81.9451L215.652 86.4571L217.042 85.8949L215.218 81.3829L213.828 81.9451ZM215.891 85.5802C214.899 86.3391 213.67 86.9078 212.184 87.2715L212.541 88.7285C214.192 88.3242 215.619 87.6769 216.802 86.7718L215.891 85.5802ZM212.181 87.2724C210.674 87.6492 209.476 87.826 208.571 87.826V89.326C209.649 89.326 210.98 89.1188 212.545 88.7276L212.181 87.2724ZM212.714 73.882C212.375 72.2225 211.745 70.8964 210.748 70.0143L209.754 71.1377C210.421 71.7276 210.943 72.7055 211.244 74.182L212.714 73.882ZM210.76 70.0249C209.774 69.1155 208.547 68.674 207.131 68.674V70.174C208.211 70.174 209.063 70.5005 209.742 71.1271L210.76 70.0249ZM207.131 68.674C205.68 68.674 204.421 69.1336 203.405 70.0737L204.424 71.1743C205.137 70.5144 206.022 70.174 207.131 70.174V68.674ZM203.417 70.0634C202.389 70.9764 201.771 72.2881 201.496 73.9062L202.974 74.1578C203.211 72.7679 203.712 71.8076 204.413 71.1846L203.417 70.0634ZM202.235 74.782H211.979V73.282H202.235V74.782ZM228.151 82.864L227.621 83.3943L227.629 83.4024L227.637 83.4101L228.151 82.864ZM232.903 83.056L232.608 82.3666L232.599 82.3706L232.903 83.056ZM235.447 81.328L235.967 81.869L236.197 81.6477V81.328H235.447ZM235.447 77.776H236.197V77.026H235.447V77.776ZM228.199 78.784L227.643 78.2808L227.636 78.2883L227.63 78.2959L228.199 78.784ZM224.071 86.512L223.535 87.0362L223.541 87.0423L224.071 86.512ZM224.455 75.52L223.992 74.9299L223.992 74.9299L224.455 75.52ZM235.399 73.6V74.35H236.17L236.149 73.5797L235.399 73.6ZM234.343 70.864L233.8 71.3812L233.813 71.3945L233.826 71.4071L234.343 70.864ZM228.103 70.336L228.268 71.0677L228.276 71.0658L228.285 71.0636L228.103 70.336ZM224.887 71.392L224.174 71.6232L224.438 72.4404L225.212 72.0678L224.887 71.392ZM223.207 66.208L222.786 65.5874L222.32 65.9036L222.494 66.4392L223.207 66.208ZM227.287 64.72L227.442 65.454L227.451 65.4518L227.287 64.72ZM238.711 66.544L238.235 67.1232L238.24 67.1278L238.711 66.544ZM241.687 88V88.75H242.437V88H241.687ZM238.471 88L237.88 88.4615L238.105 88.75H238.471V88ZM236.935 86.032L237.526 85.5705L237.066 84.9803L236.475 85.44L236.935 86.032ZM233.863 87.808L233.565 87.1196L233.559 87.1226L233.863 87.808ZM226.585 81.04C226.585 81.9402 226.958 82.7318 227.621 83.3943L228.681 82.3337C228.256 81.9082 228.085 81.4838 228.085 81.04H226.585ZM227.637 83.4101C228.347 84.0784 229.264 84.382 230.311 84.382V82.882C229.566 82.882 229.043 82.6736 228.665 82.3178L227.637 83.4101ZM230.311 84.382C231.29 84.382 232.257 84.1639 233.208 83.7414L232.599 82.3706C231.821 82.7161 231.061 82.882 230.311 82.882V84.382ZM233.199 83.7454C234.188 83.3213 235.11 82.691 235.967 81.869L234.928 80.787C234.184 81.501 233.41 82.0227 232.608 82.3666L233.199 83.7454ZM236.197 81.328V77.776H234.697V81.328H236.197ZM235.447 77.026H230.743V78.526H235.447V77.026ZM230.743 77.026C229.489 77.026 228.421 77.4204 227.643 78.2808L228.755 79.2872C229.193 78.8036 229.821 78.526 230.743 78.526V77.026ZM227.63 78.2959C226.945 79.0944 226.585 80.017 226.585 81.04H228.085C228.085 80.399 228.301 79.8176 228.769 79.2721L227.63 78.2959ZM230.407 87.826C227.666 87.826 225.783 87.1631 224.601 85.9817L223.541 87.0423C225.111 88.6129 227.452 89.326 230.407 89.326V87.826ZM224.608 85.9878C223.388 84.7395 222.757 83.1133 222.757 81.04H221.257C221.257 83.4467 222.003 85.4685 223.535 87.0362L224.608 85.9878ZM222.757 81.04C222.757 78.8295 223.497 77.2245 224.918 76.1101L223.992 74.9299C222.149 76.3755 221.257 78.4505 221.257 81.04H222.757ZM224.918 76.1101C226.386 74.9585 228.338 74.35 230.839 74.35V72.85C228.093 72.85 225.788 73.5215 223.992 74.9299L224.918 76.1101ZM230.839 74.35H235.399V72.85H230.839V74.35ZM236.149 73.5797C236.113 72.255 235.713 71.1327 234.86 70.3209L233.826 71.4071C234.318 71.8753 234.621 72.577 234.649 73.6203L236.149 73.5797ZM234.886 70.3468C234.072 69.4918 232.96 69.106 231.655 69.106V70.606C232.655 70.606 233.334 70.8922 233.8 71.3812L234.886 70.3468ZM231.655 69.106C230.494 69.106 229.249 69.2765 227.921 69.6084L228.285 71.0636C229.518 70.7554 230.64 70.606 231.655 70.606V69.106ZM227.938 69.6043C226.622 69.9006 225.492 70.2684 224.562 70.7162L225.212 72.0678C226.01 71.6836 227.024 71.3474 228.268 71.0677L227.938 69.6043ZM225.601 71.1608L223.921 65.9768L222.494 66.4392L224.174 71.6232L225.601 71.1608ZM223.628 66.8286C224.405 66.3012 225.654 65.8302 227.442 65.4539L227.133 63.9861C225.272 64.3778 223.801 64.8988 222.786 65.5874L223.628 66.8286ZM227.451 65.4518C229.293 65.0391 230.652 64.846 231.559 64.846V63.346C230.482 63.346 228.993 63.5689 227.123 63.9882L227.451 65.4518ZM231.559 64.846C234.185 64.846 236.396 65.6112 238.235 67.1232L239.188 65.9648C237.058 64.2128 234.501 63.346 231.559 63.346V64.846ZM238.24 67.1278C240.052 68.5889 240.937 70.4243 240.937 72.688H242.437C242.437 69.9597 241.338 67.6991 239.182 65.9602L238.24 67.1278ZM240.937 72.688V88H242.437V72.688H240.937ZM241.687 87.25H238.471V88.75H241.687V87.25ZM239.062 87.5385L237.526 85.5705L236.344 86.4935L237.88 88.4615L239.062 87.5385ZM236.475 85.44C235.669 86.0669 234.701 86.6284 233.565 87.1196L234.161 88.4964C235.393 87.9636 236.474 87.3411 237.396 86.624L236.475 85.44ZM233.559 87.1226C232.493 87.5961 231.445 87.826 230.407 87.826V89.326C231.674 89.326 232.929 89.0439 234.168 88.4934L233.559 87.1226ZM267.445 67.456L266.802 67.8419L267.328 68.719L268.007 67.9533L267.445 67.456ZM271.381 64.816L271.655 65.5143L271.662 65.5114L271.381 64.816ZM282.565 66.592L281.953 67.025L281.958 67.0319L282.565 66.592ZM284.581 88V88.75H285.331V88H284.581ZM278.293 88H277.543V88.75H278.293V88ZM277.237 70.336L276.674 70.8315L276.679 70.8372L276.684 70.8428L277.237 70.336ZM271.333 69.856L271.006 69.1809L271.006 69.1809L271.333 69.856ZM268.645 71.488L268.191 70.8909L267.857 71.1449L267.899 71.5626L268.645 71.488ZM268.741 72.448L269.487 72.3734L269.487 72.3734L268.741 72.448ZM268.789 88V88.75H269.539V88H268.789ZM262.501 88H261.751V88.75H262.501V88ZM261.445 70.336L260.882 70.8315L260.887 70.8372L260.892 70.8428L261.445 70.336ZM255.973 69.664L256.252 70.3604L256.259 70.3576L256.265 70.3547L255.973 69.664ZM253.669 70.912L253.241 70.2963L252.919 70.5201V70.912H253.669ZM253.669 88V88.75H254.419V88H253.669ZM247.429 88H246.679V88.75H247.429V88ZM247.429 64.72V63.97H246.679V64.72H247.429ZM250.693 64.72L251.3 64.2789L251.075 63.97H250.693V64.72ZM252.229 66.832L251.623 67.2731L252.115 67.9497L252.734 67.387L252.229 66.832ZM256.021 64.624L256.268 65.3324L256.276 65.3293L256.021 64.624ZM264.613 64.816L264.25 65.4724L264.257 65.4761L264.264 65.4797L264.613 64.816ZM268.007 67.9533C268.907 66.9361 270.114 66.1184 271.655 65.5142L271.107 64.1178C269.384 64.7936 267.967 65.7359 266.884 66.9587L268.007 67.9533ZM271.662 65.5114C273.267 64.8631 274.658 64.558 275.845 64.558V63.058C274.409 63.058 272.823 63.4249 271.1 64.1206L271.662 65.5114ZM275.845 64.558C278.873 64.558 280.832 65.4394 281.953 67.0249L283.178 66.1591C281.674 64.0326 279.153 63.058 275.845 63.058V64.558ZM281.958 67.0319C283.194 68.7388 283.831 70.8498 283.831 73.408H285.331C285.331 70.5902 284.625 68.1572 283.173 66.1521L281.958 67.0319ZM283.831 73.408V88H285.331V73.408H283.831ZM284.581 87.25H278.293V88.75H284.581V87.25ZM279.043 88V73.696H277.543V88H279.043ZM279.043 73.696C279.043 72.1137 278.665 70.7836 277.79 69.8292L276.684 70.8428C277.217 71.4244 277.543 72.3343 277.543 73.696H279.043ZM277.8 69.8405C276.918 68.8382 275.664 68.386 274.165 68.386V69.886C275.354 69.886 276.148 70.2338 276.674 70.8315L277.8 69.8405ZM274.165 68.386C273.133 68.386 272.077 68.6627 271.006 69.1809L271.66 70.5311C272.573 70.0893 273.405 69.886 274.165 69.886V68.386ZM271.006 69.1809C269.974 69.6805 269.035 70.25 268.191 70.8909L269.099 72.0851C269.856 71.51 270.708 70.9915 271.66 70.5311L271.006 69.1809ZM267.899 71.5626C267.931 71.8826 267.963 72.2026 267.995 72.5226L269.487 72.3734C269.455 72.0534 269.423 71.7334 269.391 71.4134L267.899 71.5626ZM267.995 72.5226C268.024 72.818 268.039 73.113 268.039 73.408H269.539C269.539 73.063 269.522 72.718 269.487 72.3734L267.995 72.5226ZM268.039 73.408V88H269.539V73.408H268.039ZM268.789 87.25H262.501V88.75H268.789V87.25ZM263.251 88V73.696H261.751V88H263.251ZM263.251 73.696C263.251 72.1137 262.873 70.7836 261.998 69.8292L260.892 70.8428C261.425 71.4244 261.751 72.3343 261.751 73.696H263.251ZM262.008 69.8405C261.13 68.8422 259.895 68.386 258.421 68.386V69.886C259.572 69.886 260.353 70.2298 260.882 70.8315L262.008 69.8405ZM258.421 68.386C257.509 68.386 256.593 68.5872 255.681 68.9733L256.265 70.3547C257.017 70.0368 257.734 69.886 258.421 69.886V68.386ZM255.695 68.9676C254.84 69.3096 254.022 69.7532 253.241 70.2963L254.097 71.5277C254.789 71.0468 255.507 70.6584 256.252 70.3604L255.695 68.9676ZM252.919 70.912V88H254.419V70.912H252.919ZM253.669 87.25H247.429V88.75H253.669V87.25ZM248.179 88V64.72H246.679V88H248.179ZM247.429 65.47H250.693V63.97H247.429V65.47ZM250.087 65.1611L251.623 67.2731L252.836 66.3909L251.3 64.2789L250.087 65.1611ZM252.734 67.387C253.708 66.501 254.882 65.8142 256.268 65.3324L255.775 63.9156C254.216 64.4578 252.862 65.243 251.725 66.277L252.734 67.387ZM256.276 65.3293C257.725 64.8052 258.981 64.558 260.053 64.558V63.058C258.758 63.058 257.325 63.3548 255.766 63.9187L256.276 65.3293ZM260.053 64.558C261.789 64.558 263.175 64.878 264.25 65.4724L264.976 64.1596C263.619 63.41 261.966 63.058 260.053 63.058V64.558ZM264.264 65.4797C265.365 66.0592 266.204 66.8459 266.802 67.8419L268.088 67.0701C267.342 65.8261 266.293 64.8528 264.962 64.1523L264.264 65.4797ZM302.625 80.8L302.969 80.1335L302.148 79.7098L301.902 80.6003L302.625 80.8ZM306.417 82.336L306.654 81.6245L306.654 81.6245L306.417 82.336ZM315.153 82.192L314.761 81.5525L314.751 81.5584L315.153 82.192ZM314.673 76.672L314.253 77.2936L314.262 77.2996L314.271 77.3054L314.673 76.672ZM310.401 74.176L310.058 74.8431L310.06 74.8441L310.401 74.176ZM303.777 70.048L303.319 70.6426L303.33 70.6502L303.777 70.048ZM303.585 57.136L304.071 57.7068L304.077 57.7022L303.585 57.136ZM316.785 55.36L316.56 56.0756L316.56 56.0756L316.785 55.36ZM321.105 57.04L321.798 57.3266L322.067 56.6747L321.433 56.3658L321.105 57.04ZM319.041 62.032L318.714 62.7071L319.43 63.0535L319.734 62.3186L319.041 62.032ZM315.825 60.688L315.553 61.387L315.561 61.3903L315.57 61.3934L315.825 60.688ZM308.481 60.832L308.111 60.1794L308.101 60.185L308.481 60.832ZM308.769 66.304L308.333 66.9143L308.343 66.9213L308.353 66.928L308.769 66.304ZM312.897 68.656L313.269 68.0048L313.251 67.9945L313.232 67.9852L312.897 68.656ZM313.233 68.848L312.861 69.4992L312.875 69.5075L312.89 69.5151L313.233 68.848ZM319.857 73.072L319.398 73.6655L319.408 73.6731L319.857 73.072ZM319.905 86.08L319.435 85.4952L319.431 85.4987L319.905 86.08ZM305.553 87.712L305.348 88.4336L305.351 88.4343L305.553 87.712ZM301.233 85.84L300.51 85.6403L300.384 86.0959L300.74 86.406L301.233 85.84ZM302.281 81.4665C303.319 82.0022 304.622 82.5282 306.179 83.0475L306.654 81.6245C305.14 81.1198 303.915 80.6218 302.969 80.1335L302.281 81.4665ZM306.179 83.0475C307.779 83.5806 309.315 83.854 310.785 83.854V82.354C309.502 82.354 308.126 82.1154 306.654 81.6245L306.179 83.0475ZM310.785 83.854C312.789 83.854 314.416 83.5466 315.554 82.8256L314.751 81.5584C313.97 82.0534 312.685 82.354 310.785 82.354V83.854ZM315.545 82.8315C316.756 82.0888 317.391 80.9681 317.391 79.552H315.891C315.891 80.4399 315.533 81.0792 314.761 81.5525L315.545 82.8315ZM317.391 79.552C317.391 78.1067 316.502 76.944 315.074 76.0386L314.271 77.3054C315.467 78.064 315.891 78.8213 315.891 79.552H317.391ZM315.092 76.0504C313.784 75.1671 312.333 74.3199 310.741 73.5079L310.06 74.8441C311.604 75.6321 313.002 76.4489 314.253 77.2936L315.092 76.0504ZM310.743 73.5089C308.476 72.344 306.303 70.9898 304.224 69.4458L303.33 70.6502C305.474 72.2422 307.717 73.64 310.058 74.8431L310.743 73.5089ZM304.234 69.4535C302.358 68.0107 301.407 66.0012 301.407 63.328H299.907C299.907 66.4148 301.035 68.8853 303.319 70.6425L304.234 69.4535ZM301.407 63.328C301.407 61.0938 302.278 59.235 304.071 57.7068L303.098 56.5652C300.987 58.365 299.907 60.6342 299.907 63.328H301.407ZM304.077 57.7022C305.847 56.1636 308.416 55.342 311.889 55.342V53.842C308.193 53.842 305.226 54.7164 303.093 56.5698L304.077 57.7022ZM311.889 55.342C313.441 55.342 314.997 55.5853 316.56 56.0756L317.009 54.6444C315.308 54.1107 313.6 53.842 311.889 53.842V55.342ZM316.56 56.0756C318.164 56.5789 319.568 57.1258 320.776 57.7142L321.433 56.3658C320.145 55.7382 318.669 55.1651 317.009 54.6444L316.56 56.0756ZM320.412 56.7534L318.348 61.7454L319.734 62.3186L321.798 57.3266L320.412 56.7534ZM319.367 61.3569C318.349 60.8644 317.253 60.4065 316.079 59.9826L315.57 61.3934C316.7 61.8015 317.748 62.2396 318.714 62.7071L319.367 61.3569ZM316.096 59.989C314.847 59.5029 313.473 59.266 311.985 59.266V60.766C313.312 60.766 314.499 60.9771 315.553 61.387L316.096 59.989ZM311.985 59.266C310.511 59.266 309.208 59.5576 308.111 60.1795L308.85 61.4845C309.673 61.0184 310.707 60.766 311.985 60.766V59.266ZM308.101 60.185C306.932 60.8703 306.339 61.9553 306.339 63.328H307.839C307.839 62.4607 308.173 61.8817 308.86 61.479L308.101 60.185ZM306.339 63.328C306.339 64.796 307.052 65.9997 308.333 66.9143L309.205 65.6937C308.245 65.0083 307.839 64.228 307.839 63.328H306.339ZM308.353 66.928C309.537 67.7174 310.941 68.5167 312.561 69.3268L313.232 67.9852C311.652 67.1953 310.305 66.4266 309.185 65.68L308.353 66.928ZM312.525 69.3072L312.861 69.4992L313.605 68.1968L313.269 68.0048L312.525 69.3072ZM312.89 69.5151C315.152 70.6775 317.321 72.0606 319.398 73.6655L320.315 72.4785C318.168 70.8194 315.921 69.3865 313.575 68.1809L312.89 69.5151ZM319.408 73.6731C321.353 75.1249 322.323 77.0894 322.323 79.648H323.823C323.823 76.6386 322.648 74.2191 320.305 72.4709L319.408 73.6731ZM322.323 79.648C322.323 82.0011 321.379 83.9342 319.435 85.4952L320.374 86.6648C322.654 84.8338 323.823 82.4789 323.823 79.648H322.323ZM319.431 85.4987C317.535 87.0448 314.722 87.874 310.881 87.874V89.374C314.911 89.374 318.115 88.5072 320.379 86.6613L319.431 85.4987ZM310.881 87.874C309.602 87.874 307.901 87.5894 305.754 86.9897L305.351 88.4343C307.556 89.0506 309.407 89.374 310.881 89.374V87.874ZM305.757 86.9905C303.617 86.3835 302.323 85.7946 301.725 85.274L300.74 86.406C301.614 87.1654 303.2 87.8245 305.348 88.4335L305.757 86.9905ZM301.956 86.0397L303.348 80.9997L301.902 80.6003L300.51 85.6403L301.956 86.0397ZM342.501 87.52L342.974 88.1021L343.404 87.7527L343.196 87.2389L342.501 87.52ZM340.293 88.528L340.1 87.8033L340.085 87.8072L340.071 87.8117L340.293 88.528ZM330.981 86.8L330.479 87.3569L330.484 87.3621L330.49 87.3671L330.981 86.8ZM328.533 69.568H329.283V68.818H328.533V69.568ZM325.413 69.568H324.663V70.318H325.413V69.568ZM325.413 64.768V64.018H324.663V64.768H325.413ZM328.533 64.768V65.518H329.283V64.768H328.533ZM328.533 59.248L328.401 58.5096L327.783 58.6199V59.248H328.533ZM334.725 58.144H335.475V57.2484L334.593 57.4056L334.725 58.144ZM334.725 64.768H333.975V65.518H334.725V64.768ZM338.949 64.768L339.645 64.4895L339.457 64.018H338.949V64.768ZM340.869 69.568V70.318H341.977L341.565 69.2895L340.869 69.568ZM334.725 69.568V68.818H333.975V69.568H334.725ZM335.589 82.48L334.98 82.9182L334.985 82.9242L334.989 82.93L335.589 82.48ZM339.381 83.488L339.55 84.2188L339.55 84.2188L339.381 83.488ZM340.677 83.008L341.372 82.7269L341.068 81.974L340.342 82.3372L340.677 83.008ZM342.028 86.9379C341.629 87.2621 341.004 87.5621 340.1 87.8033L340.486 89.2527C341.502 88.9819 342.349 88.6099 342.974 88.1021L342.028 86.9379ZM340.071 87.8117C339.193 88.0841 338.438 88.21 337.797 88.21V89.71C338.628 89.71 339.537 89.5479 340.515 89.2443L340.071 87.8117ZM337.797 88.21C335.041 88.21 332.962 87.5225 331.472 86.2329L330.49 87.3671C332.328 88.9575 334.793 89.71 337.797 89.71V88.21ZM331.483 86.2431C330.043 84.9443 329.283 83.0869 329.283 80.56H327.783C327.783 83.4091 328.655 85.7117 330.479 87.3569L331.483 86.2431ZM329.283 80.56V69.568H327.783V80.56H329.283ZM328.533 68.818H325.413V70.318H328.533V68.818ZM326.163 69.568V64.768H324.663V69.568H326.163ZM325.413 65.518H328.533V64.018H325.413V65.518ZM329.283 64.768V59.248H327.783V64.768H329.283ZM328.665 59.9864L334.857 58.8824L334.593 57.4056L328.401 58.5096L328.665 59.9864ZM333.975 58.144V64.768H335.475V58.144H333.975ZM334.725 65.518H338.949V64.018H334.725V65.518ZM338.253 65.0465L340.173 69.8465L341.565 69.2895L339.645 64.4895L338.253 65.0465ZM340.869 68.818H334.725V70.318H340.869V68.818ZM333.975 69.568V79.456H335.475V69.568H333.975ZM333.975 79.456C333.975 80.792 334.293 81.9633 334.98 82.9182L336.198 82.0418C335.733 81.3967 335.475 80.552 335.475 79.456H333.975ZM334.989 82.93C335.731 83.9199 336.822 84.382 338.133 84.382V82.882C337.204 82.882 336.599 82.5761 336.189 82.03L334.989 82.93ZM338.133 84.382C338.607 84.382 339.08 84.3272 339.55 84.2188L339.212 82.7572C338.85 82.8408 338.491 82.882 338.133 82.882V84.382ZM339.55 84.2188C340.032 84.1074 340.52 83.9249 341.012 83.6788L340.342 82.3372C339.938 82.5391 339.562 82.6766 339.212 82.7572L339.55 84.2188ZM339.982 83.2891L341.806 87.8011L343.196 87.2389L341.372 82.7269L339.982 83.2891ZM351.432 82.864L350.902 83.3943L350.91 83.4024L350.918 83.4101L351.432 82.864ZM356.184 83.056L355.889 82.3666L355.88 82.3706L356.184 83.056ZM358.728 81.328L359.248 81.869L359.478 81.6477V81.328H358.728ZM358.728 77.776H359.478V77.026H358.728V77.776ZM351.48 78.784L350.924 78.2808L350.917 78.2883L350.911 78.2959L351.48 78.784ZM347.352 86.512L346.816 87.0362L346.822 87.0423L347.352 86.512ZM347.736 75.52L347.274 74.9299L347.274 74.9299L347.736 75.52ZM358.68 73.6V74.35H359.451L359.43 73.5797L358.68 73.6ZM357.624 70.864L357.081 71.3812L357.094 71.3945L357.107 71.4071L357.624 70.864ZM351.384 70.336L351.549 71.0677L351.558 71.0658L351.566 71.0636L351.384 70.336ZM348.168 71.392L347.455 71.6232L347.72 72.4404L348.494 72.0678L348.168 71.392ZM346.488 66.208L346.067 65.5874L345.601 65.9036L345.775 66.4392L346.488 66.208ZM350.568 64.72L350.723 65.454L350.732 65.4518L350.568 64.72ZM361.992 66.544L361.516 67.1232L361.522 67.1278L361.992 66.544ZM364.968 88V88.75H365.718V88H364.968ZM361.752 88L361.161 88.4615L361.386 88.75H361.752V88ZM360.216 86.032L360.808 85.5705L360.347 84.9803L359.756 85.44L360.216 86.032ZM357.144 87.808L356.847 87.1196L356.84 87.1226L357.144 87.808ZM349.866 81.04C349.866 81.9402 350.24 82.7318 350.902 83.3943L351.963 82.3337C351.537 81.9082 351.366 81.4838 351.366 81.04H349.866ZM350.918 83.4101C351.628 84.0784 352.546 84.382 353.592 84.382V82.882C352.847 82.882 352.324 82.6736 351.946 82.3178L350.918 83.4101ZM353.592 84.382C354.571 84.382 355.538 84.1639 356.489 83.7414L355.88 82.3706C355.103 82.7161 354.342 82.882 353.592 82.882V84.382ZM356.48 83.7454C357.469 83.3213 358.392 82.691 359.248 81.869L358.209 80.787C357.465 81.501 356.691 82.0227 355.889 82.3666L356.48 83.7454ZM359.478 81.328V77.776H357.978V81.328H359.478ZM358.728 77.026H354.024V78.526H358.728V77.026ZM354.024 77.026C352.771 77.026 351.703 77.4204 350.924 78.2808L352.037 79.2872C352.474 78.8036 353.102 78.526 354.024 78.526V77.026ZM350.911 78.2959C350.226 79.0944 349.866 80.017 349.866 81.04H351.366C351.366 80.399 351.582 79.8176 352.05 79.2721L350.911 78.2959ZM353.688 87.826C350.947 87.826 349.064 87.1631 347.883 85.9817L346.822 87.0423C348.393 88.6129 350.733 89.326 353.688 89.326V87.826ZM347.889 85.9878C346.669 84.7395 346.038 83.1133 346.038 81.04H344.538C344.538 83.4467 345.284 85.4685 346.816 87.0362L347.889 85.9878ZM346.038 81.04C346.038 78.8295 346.778 77.2245 348.199 76.1101L347.274 74.9299C345.43 76.3755 344.538 78.4505 344.538 81.04H346.038ZM348.199 76.1101C349.668 74.9585 351.619 74.35 354.12 74.35V72.85C351.374 72.85 349.069 73.5215 347.274 74.9299L348.199 76.1101ZM354.12 74.35H358.68V72.85H354.12V74.35ZM359.43 73.5797C359.394 72.255 358.994 71.1327 358.142 70.3209L357.107 71.4071C357.599 71.8753 357.902 72.577 357.931 73.6203L359.43 73.5797ZM358.167 70.3468C357.353 69.4918 356.241 69.106 354.936 69.106V70.606C355.936 70.606 356.616 70.8922 357.081 71.3812L358.167 70.3468ZM354.936 69.106C353.776 69.106 352.53 69.2765 351.202 69.6084L351.566 71.0636C352.799 70.7554 353.921 70.606 354.936 70.606V69.106ZM351.22 69.6043C349.903 69.9006 348.773 70.2684 347.843 70.7162L348.494 72.0678C349.292 71.6836 350.306 71.3474 351.549 71.0677L351.22 69.6043ZM348.882 71.1608L347.202 65.9768L345.775 66.4392L347.455 71.6232L348.882 71.1608ZM346.91 66.8286C347.687 66.3012 348.935 65.8302 350.723 65.4539L350.414 63.9861C348.553 64.3778 347.082 64.8988 346.067 65.5874L346.91 66.8286ZM350.732 65.4518C352.574 65.0391 353.933 64.846 354.84 64.846V63.346C353.764 63.346 352.275 63.5689 350.404 63.9882L350.732 65.4518ZM354.84 64.846C357.466 64.846 359.678 65.6112 361.516 67.1232L362.469 65.9648C360.339 64.2128 357.783 63.346 354.84 63.346V64.846ZM361.522 67.1278C363.333 68.5889 364.218 70.4243 364.218 72.688H365.718C365.718 69.9597 364.619 67.6991 362.463 65.9602L361.522 67.1278ZM364.218 72.688V88H365.718V72.688H364.218ZM364.968 87.25H361.752V88.75H364.968V87.25ZM362.344 87.5385L360.808 85.5705L359.625 86.4935L361.161 88.4615L362.344 87.5385ZM359.756 85.44C358.95 86.0669 357.983 86.6284 356.847 87.1196L357.442 88.4964C358.674 87.9636 359.755 87.3411 360.677 86.624L359.756 85.44ZM356.84 87.1226C355.775 87.5961 354.726 87.826 353.688 87.826V89.326C354.955 89.326 356.21 89.0439 357.449 88.4934L356.84 87.1226ZM383.478 64.72L384.206 64.5381L384.064 63.97H383.478V64.72ZM384.726 69.712V70.462H385.687L385.454 69.5301L384.726 69.712ZM381.03 70.624L380.733 69.9354L380.727 69.938L381.03 70.624ZM376.95 73.312L376.455 72.7492L376.2 72.9732V73.312H376.95ZM376.95 88V88.75H377.7V88H376.95ZM370.71 88H369.96V88.75H370.71V88ZM370.71 64.72V63.97H369.96V64.72H370.71ZM373.974 64.72L374.616 64.3315L374.397 63.97H373.974V64.72ZM376.038 68.128L375.397 68.5165L375.858 69.2772L376.53 68.6948L376.038 68.128ZM379.542 65.824L379.884 66.4918L379.896 66.4853L379.542 65.824ZM382.751 64.9019L383.999 69.8939L385.454 69.5301L384.206 64.5381L382.751 64.9019ZM384.726 68.962C383.533 68.962 382.196 69.3038 380.733 69.9355L381.328 71.3125C382.681 70.7282 383.808 70.462 384.726 70.462V68.962ZM380.727 69.938C379.269 70.5822 377.846 71.5239 376.455 72.7492L377.446 73.8748C378.743 72.7321 380.04 71.8818 381.333 71.31L380.727 69.938ZM376.2 73.312V88H377.7V73.312H376.2ZM376.95 87.25H370.71V88.75H376.95V87.25ZM371.46 88V64.72H369.96V88H371.46ZM370.71 65.47H373.974V63.97H370.71V65.47ZM373.333 65.1085L375.397 68.5165L376.68 67.7395L374.616 64.3315L373.333 65.1085ZM376.53 68.6948C377.435 67.9097 378.551 67.1739 379.884 66.4917L379.201 65.1563C377.782 65.8821 376.561 66.6823 375.547 67.5612L376.53 68.6948ZM379.896 66.4853C381.19 65.7932 382.381 65.47 383.478 65.47V63.97C382.08 63.97 380.647 64.3828 379.189 65.1627L379.896 66.4853Z" fill="#7E15FC" mask="url(#path-6-outside-1_1_3)"/>
<path d="M96.6784 110.875C95.9254 110.878 95.1827 110.7 94.5125 110.357L70.5 97.7858L46.4875 110.357C45.7078 110.767 44.8287 110.95 43.9501 110.885C43.0715 110.821 42.2287 110.511 41.5176 109.991C40.8064 109.471 40.2553 108.762 39.927 107.944C39.5987 107.127 39.5064 106.234 39.6604 105.366L44.3688 78.8583L24.9705 60.025C24.3652 59.421 23.9359 58.6637 23.7285 57.8342C23.5212 57.0047 23.5436 56.1344 23.7934 55.3167C24.0663 54.4799 24.5682 53.7363 25.2424 53.1704C25.9165 52.6045 26.7357 52.2389 27.6071 52.115L54.4446 48.2071L66.2625 24.0533C66.6481 23.2573 67.25 22.5859 67.9995 22.1162C68.7489 21.6465 69.6155 21.3973 70.5 21.3973C71.3845 21.3973 72.2511 21.6465 73.0006 22.1162C73.75 22.5859 74.352 23.2573 74.7375 24.0533L86.6967 48.16L113.534 52.0679C114.406 52.1918 115.225 52.5574 115.899 53.1233C116.573 53.6892 117.075 54.4328 117.348 55.2696C117.598 56.0873 117.62 56.9576 117.413 57.7871C117.205 58.6166 116.776 59.374 116.171 59.9779L96.7725 78.8112L101.481 105.319C101.649 106.202 101.561 107.114 101.227 107.949C100.894 108.783 100.328 109.504 99.5975 110.027C98.7449 110.625 97.7184 110.923 96.6784 110.875ZM70.5 87.8042C71.2548 87.7851 72.0014 87.9636 72.6659 88.3221L90.4163 97.7387L87.0263 77.9167C86.8948 77.1598 86.9504 76.3822 87.1884 75.6518C87.4264 74.9214 87.8395 74.2603 88.3917 73.7262L102.517 59.9308L82.7417 57.0117C82.0165 56.8657 81.336 56.5509 80.7552 56.0928C80.1744 55.6347 79.7097 55.0462 79.3988 54.375L70.5 36.7187L61.6013 54.375C61.2606 55.0516 60.7617 55.636 60.147 56.0787C59.5322 56.5213 58.8197 56.809 58.07 56.9175L38.295 59.8367L52.42 73.6321C52.9722 74.1662 53.3853 74.8272 53.6233 75.5577C53.8613 76.2881 53.917 77.0656 53.7854 77.8225L50.3954 97.4092L68.1459 87.9925C68.898 87.7129 69.713 87.6477 70.5 87.8042Z" fill="#7E15FC"/>
<path d="M69.1042 77.7584L76.9488 70.5L69.1042 63.2417V77.7584Z" fill="#7E15FC"/>
<path d="M70.5 42.5833C64.9786 42.5833 59.5812 44.2206 54.9903 47.2881C50.3995 50.3557 46.8213 54.7157 44.7084 59.8168C42.5954 64.9179 42.0426 70.531 43.1197 75.9463C44.1969 81.3616 46.8557 86.3359 50.7599 90.2401C54.6642 94.1443 59.6384 96.8031 65.0537 97.8803C70.469 98.9574 76.0821 98.4046 81.1832 96.2916C86.2844 94.1787 90.6443 90.6005 93.7119 86.0097C96.7794 81.4188 98.4167 76.0214 98.4167 70.5C98.4167 66.8339 97.6946 63.2038 96.2916 59.8168C94.8887 56.4298 92.8324 53.3522 90.2401 50.7599C87.6478 48.1676 84.5703 46.1113 81.1832 44.7084C77.7962 43.3054 74.1661 42.5833 70.5 42.5833ZM81.6667 73.7942L71.505 83.2021C70.6173 84.0057 69.4641 84.453 68.2667 84.4583C67.6022 84.4568 66.9456 84.3141 66.3404 84.0396C65.517 83.7065 64.8116 83.1355 64.3144 82.3996C63.8171 81.6636 63.5505 80.7961 63.5488 79.9079V61.0921C63.5505 60.2039 63.8171 59.3364 64.3144 58.6004C64.8116 57.8645 65.517 57.2935 66.3404 56.9604C67.1886 56.5785 68.1303 56.4543 69.0485 56.6032C69.9668 56.7521 70.821 57.1675 71.505 57.7979L81.6667 67.2058C82.1236 67.6243 82.4886 68.1333 82.7382 68.7004C82.9879 69.2675 83.1168 69.8804 83.1168 70.5C83.1168 71.1196 82.9879 71.7325 82.7382 72.2996C82.4886 72.8667 82.1236 73.3757 81.6667 73.7942Z" fill="#7E15FC"/>
</svg>
